<svg width="16" height="19" viewBox="0 0 16 19" fill="none" xmlns="http://www.w3.org/2000/svg">
<path d="M9.66671 0.929443H3.00004C2.55801 0.929443 2.13409 1.10504 1.82153 1.4176C1.50897 1.73016 1.33337 2.15408 1.33337 2.59611V15.9294C1.33337 16.3715 1.50897 16.7954 1.82153 17.108C2.13409 17.4205 2.55801 17.5961 3.00004 17.5961H13C13.4421 17.5961 13.866 17.4205 14.1786 17.108C14.4911 16.7954 14.6667 16.3715 14.6667 15.9294V5.92944M9.66671 0.929443L14.6667 5.92944M9.66671 0.929443V5.92944H14.6667M11.3334 10.0961H4.66671M11.3334 13.4294H4.66671M6.33337 6.76278H4.66671" stroke="white" stroke-width="1.67" stroke-linecap="round" stroke-linejoin="round"/>
</svg>
